<?xml version="1.0" encoding="utf-8"?>
<!-- Generator: Adobe Illustrator 23.0.5, SVG Export Plug-In . SVG Version: 6.00 Build 0)  -->
<svg version="1.1" xmlns="http://www.w3.org/2000/svg" xmlns:xlink="http://www.w3.org/1999/xlink" x="0px" y="0px"
	 viewBox="0 0 192 161" style="enable-background:new 0 0 192 161;" xml:space="preserve">
<style type="text/css">
	.st0{fill:none;stroke:#000000;stroke-width:5;stroke-miterlimit:10;}
	.st1{fill:url(#SVGID_1_);}
	.st2{fill:none;stroke:#000000;stroke-width:1.4906;stroke-miterlimit:10;}
</style>
<g id="Layer_1">
</g>
<g id="Layer_2">
	<g>
		<radialGradient id="SVGID_1_" cx="95.75" cy="80.3371" r="86.6519" gradientUnits="userSpaceOnUse">
			<stop  offset="0" style="stop-color:#072083"/>
			<stop  offset="1" style="stop-color:#000000"/>
		</radialGradient>
		<path class="st1" d="M35.8,38.2c11,1.8,35.8,5.7,44.1-1.8c-4.8-16.1-6.3-26.6,3.6-32.1c4.9-2.7,10.7-3.1,15.9-1.2
			c17.9,6.3,13,16.8,9.7,32.4c10.7,6.9,35.2,3,44.4,1.5c-1.9,11-2.8,33.6,0.5,43.5c1,2.9,4.4,4.1,7,2.5c14.6-9,30.2-5.9,28.8,12.1
			c-0.5,23.2-17,16.8-28.8,13.7c-2.2-0.6-4.6,0.7-5.2,2.9c-4.3,13.9-3.6,26,1.9,42.7c-17.9,4.8-43.8,6.3-47.7,0
			c9.2-20,3-32.2-13.1-32.5c-17,2.1-24.1,8.9-12.5,35.2c-22.4,2.4-25.6,1.8-45.9-2.4c6.2-17.9,4.7-29.3,1.3-36.1
			c-1.9-3.9-1.8-4.5-6.7-2.5c-23,9.6-31.6,0.7-31.6-15.1c1.5-13.7,11-19.1,33.7-11.3C42.9,86.5,35.8,38.2,35.8,38.2z"/>
	</g>
</g>
</svg>
