<?xml version="1.0" encoding="utf-8"?>
<!-- Generator: Adobe Illustrator 23.0.5, SVG Export Plug-In . SVG Version: 6.00 Build 0)  -->
<svg version="1.1" xmlns="http://www.w3.org/2000/svg" xmlns:xlink="http://www.w3.org/1999/xlink" x="0px" y="0px"
	 viewBox="0 0 812 161" style="enable-background:new 0 0 812 161;" xml:space="preserve">
<style type="text/css">
	.st0{fill:none;stroke:#000000;stroke-width:5;stroke-miterlimit:10;}
	.st1{fill:url(#SVGID_1_);}
	.st2{fill:url(#SVGID_2_);}
	.st3{fill:none;stroke:#000000;stroke-width:1.4906;stroke-miterlimit:10;}
	.st4{fill:url(#SVGID_3_);}
	.st5{fill:url(#SVGID_4_);}
	.st6{fill:url(#SVGID_5_);}
</style>
<g id="Layer_1">
</g>
<g id="Layer_2">
	<g>
		<radialGradient id="SVGID_1_" cx="112.75" cy="80.3371" r="86.6519" gradientUnits="userSpaceOnUse">
			<stop  offset="0" style="stop-color:#FFFFFF"/>
			<stop  offset="1" style="stop-color:#FFD6C1"/>
		</radialGradient>
		<path class="st1" d="M52.8,38.2c11,1.8,35.8,5.7,44.1-1.8c-4.8-16.1-6.3-26.6,3.6-32.1c4.9-2.7,10.7-3.1,15.9-1.2
			c17.9,6.3,13,16.8,9.7,32.4c10.7,6.9,35.2,3,44.4,1.5c-1.9,11-2.8,33.6,0.5,43.5c1,2.9,4.4,4.1,7,2.5c14.6-9,30.2-5.9,28.8,12.1
			c-0.5,23.2-17,16.8-28.8,13.7c-2.2-0.6-4.6,0.7-5.2,2.9c-4.3,13.9-3.6,26,1.9,42.7c-17.9,4.8-43.8,6.3-47.7,0
			c9.2-20,3-32.2-13.1-32.5c-17,2.1-24.1,8.9-12.5,35.2c-22.4,2.4-25.6,1.8-45.9-2.4c6.2-17.9,4.7-29.3,1.3-36.1
			c-1.9-3.9-1.8-4.5-6.7-2.5c-23,9.6-31.6,0.7-31.6-15.1c1.5-13.7,11-19.1,33.7-11.3C59.9,86.5,52.8,38.2,52.8,38.2z"/>
	</g>
	<linearGradient id="SVGID_2_" gradientUnits="userSpaceOnUse" x1="231.1194" y1="89.3676" x2="793" y2="89.3676">
		<stop  offset="0.2878" style="stop-color:#FFD6C1"/>
		<stop  offset="1" style="stop-color:#FFFFFF"/>
	</linearGradient>
	<path class="st2" d="M323.7,118.6c2.5-1.4,1.2-8-1.7-8c-10.7,0.2-17.6-4.4-21-13.8c-3.4-9.4,0-20.5,9.1-25.3
		c4.1-2.2,9.6-1.6,14.5-2.2c1.9-0.2,4,0.5,5.8,0c10.1-3,13.1-1.2,13.2,9c0.2,10.4,0.4,20.8-0.1,31.1c-1,17.9-19.5,27.5-34.7,17.9
		c-2.4-1.5-4.5-6.6-3.8-9.3c1.2-4.4,5-6,10.3-3.6C319.6,116.3,322,119.6,323.7,118.6z M318.9,95.4c1.1,1.5,3.4,1.5,4.6,0
		c2.1-2.5,3.6-4.2,3.7-6c0-1.9-3.6-5.6-5.2-5.4c-2.5,0.3-6.1,3-6.5,5.2C315.1,90.8,316.8,92.7,318.9,95.4z M542,95.9
		c-0.8,0-1.4,0.7-1.4,1.5c0,3.2,0.3,12.8-0.8,14.9c-1.4,2.6-4.8,6.1-7.1,5.9c-2.9-0.2-7.8-3.6-7.9-5.8c-0.7-15.9-0.7-38.4,0-54.3
		c0.1-2.4,4.7-5.9,7.6-6.4c5.3-1.1,10.9-0.4,16.4-0.3c13.6,0.3,22.9,9.3,22.9,22.1c0.1,13-8.7,21.5-22.7,22.1
		C546.9,95.6,544.8,95.7,542,95.9z M540.7,67.9v11.6c0,1,1,1.7,1.9,1.4c3.2-1,6-1.8,8.7-2.7c4.5-1.6,4.4-7.9-0.1-9.3
		c-2.7-0.9-5.5-1.6-8.6-2.5C541.6,66.2,540.7,66.9,540.7,67.9z M453.2,75.6c-0.4-1.1-1-2.1-1.7-2.9c-2.1-2.3-6.7-4.7-9.2-3.9
		c-2.4,0.8-5.4,6.2-4.6,8.6c3.3,10.4,7.6,20.6,12.2,30.6c1,2.2,4.7,4.4,7.1,4.3c2.3-0.1,4.9-2.8,6.5-5c0.5-0.7,0.9-1.4,1.3-2.2
		c1.4-2.8,5.3-3,7.1-0.4c0.1,0.2,0.3,0.4,0.5,0.6c2.3,2.8,5.2,6.4,8.2,6.7c2.2,0.3,5.9-3.7,7.3-6.6c4.1-8.5,7.2-17.5,11-26.1
		c2.1-4.9,1.1-8.3-3.6-10.5c-4.7-2.2-8.3-0.9-10.3,4c-0.4,1-0.8,1.9-1.2,2.8c-1.1,2.6-4.5,17.9-6.5,16c-2.1-2.1-4.2-4.1-6.3-6.1
		c-1.7-1.6-4.3-1.5-5.9,0.3l-4.8,5.6C458,93.7,454.4,78.4,453.2,75.6z M433.2,89.9c-0.4,6.4,1.2,13.9-1.8,18.7
		c-1.8,2.9-10.5,1.3-16,2.1c-14.5,2.1-23-2.9-26.3-15.5c-4.1-15.5,9.7-29.4,25.2-25.7c1.8,0.4,4,0.1,5.9-0.4
		c9.4-2.7,12.5-0.6,12.9,8.9C433.3,81.9,433.1,85.9,433.2,89.9z M407.2,95.1c1.5,2,4.5,2.2,6.2,0.3c1.8-2,3.2-3.5,3.1-5
		c-0.1-2.2-3.6-5.8-5.8-5.9c-2-0.1-5.9,3.3-6.1,5.4C404.4,91.4,405.6,93,407.2,95.1z M674.9,98.7c-1.8,2.1-2.7,6.3-1.9,8.8
		c0.6,2,4.5,4.1,7,4.3c9.7,0.5,19.5,0.1,29.3,0.3c5.5,0.1,7.7-2.6,7.6-7.8c-0.1-5.4-2.9-7.6-8.2-7.2c-2.3,0.2-8.3,2.3-13.6,3.4
		c-1.6,0.3-2.6-1.7-1.3-2.8c6.7-5.5,15.3-11.8,18.8-15.9c1.8-2.1,2.8-6.3,2-9c-0.6-2.1-4.4-4.6-6.8-4.7c-9.1-0.5-18.4-0.7-27.4,0.1
		c-2.4,0.2-6.4,4.5-6.3,6.7c0.2,3,3.2,6.4,5.9,8.4c1.2,0.9,6.1-1.2,10.8-2.7c2-0.6,3.3,2,1.7,3.2C686.1,89.1,678,95.2,674.9,98.7z
		 M631,98.7c-1.8,2.1-2.7,6.3-1.9,8.8c0.6,2,4.5,4.1,7,4.3c9.7,0.5,19.5,0.1,29.3,0.3c5.5,0.1,7.7-2.6,7.6-7.8
		c-0.1-5.4-2.9-7.6-8.2-7.2c-2.3,0.2-8.3,2.3-13.6,3.4c-1.6,0.3-2.6-1.7-1.3-2.8c6.7-5.5,15.3-11.8,18.8-15.9c1.8-2.1,2.8-6.3,2-9
		c-0.6-2.1-4.4-4.6-6.8-4.7c-9.1-0.5-18.4-0.7-27.4,0.1c-2.4,0.2-6.4,4.5-6.3,6.7c0.2,3,3.2,6.4,5.9,8.4c1.2,0.9,6.1-1.2,10.8-2.7
		c2-0.6,3.3,2,1.7,3.2C642.2,89.1,634.1,95.2,631,98.7z M621,90.2c0-4.3-0.1-8.5,0-12.8c0.2-5.6-1.2-9.6-8-9.5c-6.4,0-7.4,4-7.3,9.1
		c0.1,4,0.9,10.9-0.4,14.5c-0.2,0.5-0.4,0.9-0.6,1.4c-2.9,4.8-10.1,4.6-12-0.6c-0.1-0.2-0.1-0.4-0.2-0.6c-1-4.3,0.5-12-0.7-16.2
		c-0.8-2.9-4.2-6.3-7.1-7.1c-5-1.3-7.9,1.9-7.8,7.3c0.1,5.8-0.3,11.6,0.1,17.4c0.9,11.6,9.8,19.7,20.3,19c4.7-0.3,9.4-0.4,14.1,0
		c5.9,0.5,9.7-0.9,9.6-7.1C620.9,100,621,95.1,621,90.2C621,90.2,621,90.2,621,90.2z M272.5,76.2c0-5.2,0-10.4,0-15.6
		c0-5-0.6-9.1-7.1-9.4c-6.6-0.3-8.6,3.3-8.7,9c0,9.2,0.1,18.3-0.1,27.5c-0.2,9.9-11,10.9-13.7,2.9c-1.8-5.5-6.6,1.7-9.7,5.4
		c-3.7,4.3-2.1,7.8,1.5,11c6.7,5.8,14.1,8.2,22.8,4.8c8.8-3.5,13.9-9.8,14.8-19.1C272.8,87.2,272.4,81.7,272.5,76.2
		C272.4,76.2,272.5,76.2,272.5,76.2z M369.7,99.1c-0.5,2.4-2.9,1.2-5.3,0.7c-2.1-0.5-4.2-0.7-6.3-0.8c-2.9-0.1-7.2,0.4-8.3,2.6
		c-0.9,1.8,1.2,7.5,3.1,8.1c5.9,1.9,12.4,3.4,18.5,2.9c7.9-0.6,13.4-5.1,13.6-14.3c0.2-9.2-5.8-11.9-13.1-13.8
		c-1.7-0.4-3.8,0-5.8,0.2c-1.8,0.2-3.4-1.3-3.3-3.2c0-0.6,0.1-1.3,0.1-1.9c0.1-1.8,2.1-2.8,3.6-1.9c2.4,1.4,5.1,3.3,7.1,3.1
		c3-0.3,5.7-2.3,8.6-3.6c-1.3-2.6-2-6.9-3.9-7.5c-5.1-1.5-10.7-2-16.1-1.9c-6.8,0.2-11.6,3.9-12.5,11c-0.9,7.2,1.9,12.6,8.8,15.3
		c3.6,1.4,7.4,1,11.1,2.2V99.1z M720.7,77.2c0,7-0.3,14,0.1,21c0.6,11,4.8,14.6,15.9,13.6c2.3-0.2,10.1-1,10.5-2.6
		c0.7-3,0.3-7.3-1.2-7.4c-12.1-0.6-9.9-12.7-10.1-18.5c-0.3-8.8-0.1-17.7-0.1-26.5c0-5.1-0.8-9-7.3-9.2c-6.9-0.2-8.1,3.9-8,9.4
		c0.1,6.7,0,13.4,0,20.1C720.6,77.2,720.6,77.2,720.7,77.2z M294.7,76.3c0.2-5.1-1.8-8.2-7.3-8.3c-6-0.1-8,3.1-7.9,8.7
		c0.2,9.1,0.1,18.3,0,27.5c-0.1,5.1,1.6,7.9,7.3,8c6.1,0.1,8.1-2.7,7.8-8.4c-0.2-4.6,0-9.1,0-13.7C294.7,85.4,294.6,80.9,294.7,76.3
		z M296,55.8c0-1.2-0.5-2.4-1.5-3.1c-2.4-1.9-4.7-4.1-7.3-4.6c-5-1-7.5,2.2-7.6,7.5c-0.1,5.4,2.7,8.5,7.5,7.9c2.7-0.4,5-2.7,7.5-4.7
		C295.4,58,296,56.9,296,55.8L296,55.8z M790.5,73.7c-3.9-7.3-13.8-9.7-23.8-6.9c-8.6,2.5-14.3,8.1-15.8,17.2
		c-1.6,9.7,0.6,18.5,9.2,24.1c8.8,5.8,18.6,5.5,27.9,1.2c1.9-0.9,3.8-6.1,2.9-7.9c-1.2-2.3-5.1-1.2-8-1.6c-3.3-0.5-6.7-0.4-10.1-0.3
		c-2.4,0.1-4.3-1.8-4.4-4.2v-0.1c0-0.9,0.7-1.6,1.6-1.6c3.7,0.1,7.4,0.5,10.9-0.2c4.1-0.8,10.7-2.2,11.4-4.7
		C793.7,84.2,792.8,78,790.5,73.7z M772.5,85.4c-4.4,0-8-2.1-8-4.7c0-2.6,3.6-4.7,8-4.7c4.4,0,8,2.1,8,4.7
		C780.5,83.3,776.9,85.4,772.5,85.4z"/>
</g>
</svg>
