<?xml version="1.0" encoding="utf-8"?>
<!-- Generator: Adobe Illustrator 23.0.5, SVG Export Plug-In . SVG Version: 6.00 Build 0)  -->
<svg version="1.1" xmlns="http://www.w3.org/2000/svg" xmlns:xlink="http://www.w3.org/1999/xlink" x="0px" y="0px"
	 viewBox="0 0 370 370" style="enable-background:new 0 0 370 370;" xml:space="preserve">
<style type="text/css">
	.st0{fill:none;stroke:#000000;stroke-width:5;stroke-miterlimit:10;}
	.st1{fill:url(#SVGID_1_);}
	.st2{fill:url(#SVGID_2_);}
	.st3{fill:none;stroke:#000000;stroke-width:1.4906;stroke-miterlimit:10;}
	.st4{fill:url(#SVGID_3_);}
	.st5{fill:url(#SVGID_4_);}
	.st6{fill:url(#SVGID_5_);}
	.st7{fill:url(#SVGID_6_);}
	.st8{fill:url(#SVGID_7_);}
	.st9{fill:none;stroke:#000000;stroke-width:3.2586;stroke-miterlimit:10;}
	.st10{fill:#0C0707;}
</style>
<g id="Layer_1">
</g>
<g id="Layer_2">
</g>
<g id="Layer_3">
	<path class="st9" d="M306.2,185c0,34-14,64.8-36.6,86.8c-21.8,21.3-51.7,34.4-84.6,34.4c-32.2,0-61.4-12.5-83.1-33
		c-23.5-22.1-38.1-53.5-38.1-88.2c0-34.9,14.7-66.3,38.3-88.4c21.7-20.4,50.9-32.8,83-32.8c33.5,0,63.8,13.6,85.7,35.5
		S306.2,151.5,306.2,185z"/>
	<path class="st10" d="M185,49.6L185,49.6c-6.4,0-11.5-5.2-11.5-11.5V15c0-6.4,5.2-11.5,11.5-11.5h0c6.4,0,11.5,5.2,11.5,11.5v23.1
		C196.5,44.5,191.4,49.6,185,49.6z"/>
	<path class="st10" d="M185,320.4L185,320.4c-6.4,0-11.5,5.2-11.5,11.5V355c0,6.4,5.2,11.5,11.5,11.5h0c6.4,0,11.5-5.2,11.5-11.5
		v-23.1C196.5,325.5,191.4,320.4,185,320.4z"/>
	<path class="st10" d="M117.3,67.8L117.3,67.8c-5.5,3.2-12.6,1.3-15.7-4.2L90,43.6c-3.2-5.5-1.3-12.6,4.2-15.7l0,0
		c5.5-3.2,12.6-1.3,15.7,4.2l11.5,20C124.7,57.5,122.8,64.6,117.3,67.8z"/>
	<path class="st10" d="M252.7,302.2L252.7,302.2c-5.5,3.2-7.4,10.2-4.2,15.7l11.5,20c3.2,5.5,10.2,7.4,15.7,4.2v0
		c5.5-3.2,7.4-10.2,4.2-15.7l-11.5-20C265.3,301,258.2,299.1,252.7,302.2z"/>
	<path class="st10" d="M67.8,117.3L67.8,117.3c-3.2,5.5-10.2,7.4-15.7,4.2L32,110c-5.5-3.2-7.4-10.2-4.2-15.7l0,0
		c3.2-5.5,10.2-7.4,15.7-4.2l20,11.5C69,104.7,70.9,111.8,67.8,117.3z"/>
	<path class="st10" d="M302.2,252.7L302.2,252.7c-3.2,5.5-1.3,12.6,4.2,15.7l20,11.5c5.5,3.2,12.6,1.3,15.7-4.2h0
		c3.2-5.5,1.3-12.6-4.2-15.7l-20-11.5C312.5,245.3,305.4,247.2,302.2,252.7z"/>
	<path class="st10" d="M49.6,185L49.6,185c0,6.4-5.2,11.5-11.5,11.5H15c-6.4,0-11.5-5.2-11.5-11.5v0c0-6.4,5.2-11.5,11.5-11.5h23.1
		C44.5,173.5,49.6,178.6,49.6,185z"/>
	<path class="st10" d="M320.4,185L320.4,185c0,6.4,5.2,11.5,11.5,11.5H355c6.4,0,11.5-5.2,11.5-11.5v0c0-6.4-5.2-11.5-11.5-11.5
		h-23.1C325.5,173.5,320.4,178.6,320.4,185z"/>
	<path class="st10" d="M67.8,252.7L67.8,252.7c3.2,5.5,1.3,12.6-4.2,15.7l-20,11.5c-5.5,3.2-12.6,1.3-15.7-4.2h0
		c-3.2-5.5-1.3-12.6,4.2-15.7l20-11.5C57.5,245.3,64.6,247.2,67.8,252.7z"/>
	<path class="st10" d="M302.2,117.3L302.2,117.3c3.2,5.5,10.2,7.4,15.7,4.2l20-11.5c5.5-3.2,7.4-10.2,4.2-15.7l0,0
		c-3.2-5.5-10.2-7.4-15.7-4.2l-20,11.5C301,104.7,299.1,111.8,302.2,117.3z"/>
	<path class="st10" d="M117.3,302.2L117.3,302.2c5.5,3.2,7.4,10.2,4.2,15.7L110,338c-3.2,5.5-10.2,7.4-15.7,4.2l0,0
		c-5.5-3.2-7.4-10.2-4.2-15.7l11.5-20C104.7,301,111.8,299.1,117.3,302.2z"/>
	<path class="st10" d="M252.7,67.8L252.7,67.8c5.5,3.2,12.6,1.3,15.7-4.2l11.5-20c3.2-5.5,1.3-12.6-4.2-15.7v0
		c-5.5-3.2-12.6-1.3-15.7,4.2l-11.5,20C245.3,57.5,247.2,64.6,252.7,67.8z"/>
</g>
</svg>
